<?xml version="1.0" encoding="UTF-8" standalone="no"?>
<svg width="216px" height="204px" viewBox="0 0 216 204" version="1.1" xmlns="http://www.w3.org/2000/svg" xmlns:xlink="http://www.w3.org/1999/xlink">
    <!-- Generator: Sketch 40.1 (33804) - http://www.bohemiancoding.com/sketch -->
    <title>Slice 1</title>
    <desc>Created with Sketch.</desc>
    <defs></defs>
    <g id="Page-1" stroke="none" stroke-width="1" fill="none" fill-rule="evenodd">
        <g id="Group">
            <path d="M5.1071628,138.537631 C5.42375058,120.402171 10.2494468,97.6225688 25.4992988,72.1428685 C34.4613982,57.1688475 46.3448713,43.7246154 56.9206891,34.3235299 C91.1303371,3.913794 126.211634,0.936876085 126.211634,0.936876085 C126.211634,0.936876085 136.153538,22.0531831 133.996342,52.219145 C114.871029,54.3427661 97.7586134,57.9968704 76.0255153,70.2027129 C63.3532981,77.3197418 55.2847812,82.8294905 46.9939401,90.9874856 C35.8122781,101.989981 21.8449306,117.995038 16.6701174,128.800773 C12.2676269,130.972236 8.33236392,134.319969 5.1071628,138.537631 L5.1071628,138.537631 Z" id="Combined-Shape" fill="#BF100B"></path>
            <path d="M24.5087629,126.480506 C34.1040873,109.690024 49.9047066,91.9061497 75.8562427,77.3311286 C147.908961,36.8645494 215,67 215,67 C215,67 206.815434,136.674301 139.268174,171.988361 C108.47414,188.087642 78.8910223,191.796561 55.8147979,191.066384 C59.7054839,184.307658 62,175.991866 62,167 C62,144.356325 47.4492544,126 29.5,126 C27.8027233,126 26.1358345,126.164134 24.5087629,126.480506 L24.5087629,126.480506 Z" id="Combined-Shape" fill="#8FA7AF"></path>
            <ellipse id="Oval" fill="#F98A0F" cx="28.5" cy="167" rx="28.5" ry="36"></ellipse>
        </g>
    </g>
</svg>